<?xml version="1.0" encoding="UTF-8" standalone="no"?><!DOCTYPE svg PUBLIC "-//W3C//DTD SVG 1.1//EN" "http://www.w3.org/Graphics/SVG/1.1/DTD/svg11.dtd"><svg width="100%" height="100%" viewBox="0 0 1342 1262" version="1.1" xmlns="http://www.w3.org/2000/svg" xmlns:xlink="http://www.w3.org/1999/xlink" xml:space="preserve" xmlns:serif="http://www.serif.com/" style="fill-rule:evenodd;clip-rule:evenodd;stroke-linejoin:round;stroke-miterlimit:2;"><g><path d="M546.667,117.917c-64.584,64.583 -117.5,118.75 -117.5,120c-0,2.5 211.666,215.416 232.083,233.75c7.5,7.083 12.083,2.916 127.917,-112.917l119.583,-119.583l-119.583,-119.584c-65.834,-65.833 -120.834,-119.583 -122.084,-119.583c-1.25,-0 -55.416,52.917 -120.416,117.917Z" style="fill-rule:nonzero;"/><path d="M175,8.333l0,239.584l189.583,189.583l-364.583,0l0,87.5l177.083,0c130,0 177.084,1.25 177.084,4.583c-0,2.917 -52.5,57.5 -116.667,121.25l-116.667,116.667l0,245.417l42.917,-1.25l42.5,-1.25l1.25,-103.75l0.833,-103.75l160.417,-160.417c88.333,-87.917 160.417,-161.25 160.417,-162.917c-0,-1.25 -60,-62.5 -133.334,-135.833l-133.333,-133.333l0,-202.084l-87.5,0Z" style="fill-rule:nonzero;"/><path d="M1083.33,110.417c0,87.916 -0.833,102.083 -6.25,102.083c-3.333,0 -243.333,247.5 -247.5,248.75c-4.583,1.25 -9.166,6.25 -10.416,10.833c-2.084,7.5 24.166,35.834 157.916,169.584l160,160.416l1.25,100.834c0.834,55.416 2.917,102.083 4.584,104.166c6.25,5.834 73.333,7.084 80,1.25c5.416,-4.166 6.25,-24.166 6.25,-122.5l-0,-117.083l-243.75,-243.75l356.25,-0l-0,-87.5l-177.084,-0c-97.5,-0 -177.083,-1.25 -177.083,-2.5c0,-1.667 41.25,-44.167 91.667,-94.583l91.666,-91.667l0,-240.417l-87.5,0l0,102.084Z" style="fill-rule:nonzero;"/><path d="M472.5,680c-185.417,186.25 -192.083,193.333 -187.917,204.167c2.5,5.833 368.75,365.416 374.584,369.583l10,8.333l387.083,-387.083l-193.75,-193.75c-106.667,-106.667 -194.583,-193.75 -195.833,-193.75c-1.25,0 -88.75,86.667 -194.167,192.5Z" style="fill-rule:nonzero;"/></g></svg>