<?xml version="1.0" encoding="UTF-8" standalone="no"?><!DOCTYPE svg PUBLIC "-//W3C//DTD SVG 1.1//EN" "http://www.w3.org/Graphics/SVG/1.1/DTD/svg11.dtd"><svg width="100%" height="100%" viewBox="0 0 321 321" version="1.1" xmlns="http://www.w3.org/2000/svg" xmlns:xlink="http://www.w3.org/1999/xlink" xml:space="preserve" xmlns:serif="http://www.serif.com/" style="fill-rule:evenodd;clip-rule:evenodd;stroke-linejoin:round;stroke-miterlimit:2;"><g><path d="M146.902,0.895c-36.9,3 -72.4,19.5 -99,46c-21.7,21.7 -35.3,45.2 -42.9,74.5c-13.2,50.2 0.2,105.3 35.4,145.6c2.2,2.6 5.2,6.1 6.7,7.8c1.5,1.7 3.6,3.1 3.6,3.1l2.239,2.308c3,3.4 16.761,12.892 25.461,18.192c15,9.1 31.9,15.6 50.5,19.6c9,2 13.5,2.3 31.5,2.3c23,-0 32.3,-1.4 50.8,-7.4c70.7,-23.3 116.6,-94.7 108.7,-168.8c-6.8,-63 -48.9,-115.2 -109.2,-135.8c-13,-4.4 -41.5,-8.9 -52.3,-8.2c-1.1,-0 -6.3,0.4 -11.5,0.8Zm-24.5,84.8c15.2,5.2 24.2,10.9 34.9,22.3c8.3,8.8 15.2,21.1 18.2,32.4c2.2,8.4 2.9,25.2 1.4,33.9c-2.8,16.2 -11.5,32.2 -23.5,43.5c-7,6.5 -19.8,14.6 -24.9,15.7c-1.7,0.3 -3.6,1 -4.1,1.4c-0.6,0.5 -5.1,1.6 -10,2.5c-26.8,5.1 -53.9,-3.9 -72.1,-23.9c-13.9,-15.1 -20.3,-32.1 -20.4,-53.2c-0,-35.1 24,-66.2 58.4,-75.5c9.8,-2.6 33.2,-2.1 42.1,0.9Zm119.189,0.292c0.3,1.1 36.311,35.908 37.411,36.208c1,0.3 1.9,1.3 1.9,2.4c-0,1 -8.4,10.2 -20,21.8l-20,20l-20,-20c-11,-11 -20,-20.4 -20,-20.9c-0,-0.5 8.7,-9.6 19.3,-20.2c19.6,-19.7 19.264,-19.363 21.389,-19.308Zm11.811,115.908l12,12l-24.5,24.5l-24.5,-24.5l12,-12c6.6,-6.6 12.2,-12 12.5,-12c0.3,-0 5.9,5.4 12.5,12Z" style="fill-rule:nonzero;"/></g></svg>