<?xml version="1.0" encoding="UTF-8" standalone="no"?><!DOCTYPE svg PUBLIC "-//W3C//DTD SVG 1.1//EN" "http://www.w3.org/Graphics/SVG/1.1/DTD/svg11.dtd"><svg width="100%" height="100%" viewBox="0 0 378 357" version="1.1" xmlns="http://www.w3.org/2000/svg" xmlns:xlink="http://www.w3.org/1999/xlink" xml:space="preserve" xmlns:serif="http://www.serif.com/" style="fill-rule:evenodd;clip-rule:evenodd;stroke-linejoin:round;stroke-miterlimit:2;"><g><path d="M180.456,4.468c-2.1,3 -12.9,17.9 -23.8,33.2c-10.9,15.4 -20.3,28.1 -21,28.3c-0.6,0.3 -18.1,-3.8 -39,-9c-20.9,-5.2 -38,-9.4 -38.2,-9.3c-0.1,0.1 4.1,17.1 9.2,37.7c5.2,20.6 9.5,37.8 9.5,38.2c0,0.4 -77.2,1.3 -77.2,1.3c0,0 144.1,152.7 149.4,158.3c6.5,6.9 10.2,10.1 11,9.6c0.7,-0.5 2.4,-2.2 3.8,-3.8c11.6,-13.9 56,-64.8 65.5,-75.1l7.6,-8l-46.1,-45.8l7.3,-6.5c5,-5 5.7,-5.5 5.7,-5.5c0,0.5 13.2,14.1 28,29c14.9,15 27,27.6 27,28.1c0,0.4 -1.2,2.1 -2.7,3.8c-1.6,1.6 -93.8,107.4 -93.8,107.4c0,0 -73,-41.5 -75.5,-42.8l-4.5,-2.6l5.5,6.1c3,3.3 6,6.1 6.5,6.2c1.6,0.2 30.8,27.8 50.4,46.8c5.3,5.1 9.8,9.3 10.1,9.3c1.1,0 18.1,16.5 18.6,17c0.7,0.7 2,0 4,-2.2c1.6,-1.8 10.7,-12.2 20.2,-23.1c9.5,-10.8 167,-190.5 171.6,-195.7l8.4,-9.5c0,0 -86.8,0.1 -86.4,-1.3c1.7,-5.7 18.6,-76.5 18.4,-76.8c-0.2,-0.1 -17.2,4 -37.8,9.1c-20.6,5.2 -38,9.5 -38.6,9.5c-0.9,0 -9.8,-11.8 -16.6,-21.9c-0.9,-1.5 -5.8,-8.2 -10.7,-15.1c-10,-13.8 -19,-26.4 -20.7,-28.8c-0.9,-1.3 -1.7,-0.7 -5.1,3.9Zm-53.3,167.3c0,0 24.2,24.7 25.3,25l-12,12.8l-13.3,13.3l-13.2,-13.2c-10.7,-10.7 -12.4,-12.9 -12.4,-12.9c0.9,-0.4 8,-8 14.4,-14.4l11.2,-10.6Z" style="fill-rule:nonzero;"/></g></svg>