<?xml version="1.0" encoding="UTF-8" standalone="no"?><!DOCTYPE svg PUBLIC "-//W3C//DTD SVG 1.1//EN" "http://www.w3.org/Graphics/SVG/1.1/DTD/svg11.dtd"><svg width="100%" height="100%" viewBox="0 0 1154 1405" version="1.1" xmlns="http://www.w3.org/2000/svg" xmlns:xlink="http://www.w3.org/1999/xlink" xml:space="preserve" xmlns:serif="http://www.serif.com/" style="fill-rule:evenodd;clip-rule:evenodd;stroke-linejoin:round;stroke-miterlimit:2;"><g><path d="M346.848,-0.095c0,0 1.25,394.584 2.5,402.917c0.326,1.758 184.753,193.985 187.917,197.5c6.667,6.25 6.667,7.083 -0.833,12.5c-4.167,3.333 -255,252.5 -259.167,256.667c-6.25,7.083 -6.25,7.916 0,15c4.167,4.166 525.833,519.583 525.833,519.583l1.25,-197.917l0.834,-197.916l-204.167,-204.167l137.5,-137.5c75.833,-75.417 137.5,-139.583 137.5,-141.667c0,-2.5 -16.667,-21.25 -37.5,-41.666c-20.417,-20.417 -491.667,-483.334 -491.667,-483.334Z" style="fill-rule:nonzero;"/><path d="M91.432,509.489l-90,93.75c4.166,1.25 179.583,185.416 183.75,189.166c7.5,6.667 11.666,2.917 104.583,-89.583l96.667,-96.667l-95.834,-95.833c-52.5,-52.5 -97.5,-95.833 -100,-95.833c-2.5,-0 -47.083,42.916 -99.166,95Z" style="fill-rule:nonzero;"/><path d="M857.265,701.989l-95.833,95.833l95.833,95.833c52.5,52.5 97.5,95.834 100,95.834c2.5,-0 47.5,-43.334 100,-95.834l95.833,-95.833l-95.833,-95.833c-52.5,-52.917 -97.5,-95.834 -100,-95.834c-2.5,0 -47.5,42.917 -100,95.834Z" style="fill-rule:nonzero;"/></g></svg>