<?xml version="1.0" encoding="UTF-8" standalone="no"?><!DOCTYPE svg PUBLIC "-//W3C//DTD SVG 1.1//EN" "http://www.w3.org/Graphics/SVG/1.1/DTD/svg11.dtd"><svg width="100%" height="100%" viewBox="0 0 1455 1445" version="1.1" xmlns="http://www.w3.org/2000/svg" xmlns:xlink="http://www.w3.org/1999/xlink" xml:space="preserve" xmlns:serif="http://www.serif.com/" style="fill-rule:evenodd;clip-rule:evenodd;stroke-linejoin:round;stroke-miterlimit:2;"><g><path d="M600.846,122.083l-121.667,121.667l145.834,145.833l123.75,-124.166l124.166,-123.75l-70.833,-70.834c-38.75,-38.75 -72.5,-70.833 -75,-70.833c-2.5,-0 -59.167,55 -126.25,122.083Z" style="fill-rule:nonzero;"/><path d="M795.846,314.583l-122.917,122.917l145.834,145.833l247.916,-247.916l-71.666,-71.667c-39.584,-39.583 -72.917,-72.083 -74.167,-72.083c-1.25,-0 -57.5,55.416 -125,122.916Z" style="fill-rule:nonzero;"/><path d="M988.346,509.583l-121.667,121.667l145.834,145.833l123.75,-124.166l124.166,-123.75l-70.833,-70.834c-38.75,-38.75 -72.5,-70.833 -75,-70.833c-2.5,-0 -59.167,55 -126.25,122.083Z" style="fill-rule:nonzero;"/><path d="M319.596,424.583c-19.583,2.917 -22.917,5.834 -169.583,152.5l-150,150l360.833,360.834c342.5,342.5 361.25,360.833 370.833,356.25c5.417,-2.5 410.417,-407.5 413.334,-414.167c5.416,-11.25 4.583,-12.083 -62.5,-77.917c-73.334,-72.083 -101.667,-92.083 -150.417,-107.083c-58.333,-17.5 -117.083,-2.917 -166.25,42.083c-57.5,52.5 -140.417,79.167 -207.083,67.084c-14.584,-2.5 -29.584,-6.25 -33.334,-7.917c-43.333,-20.417 -57.5,-29.583 -80,-49.583c-63.333,-57.5 -88.75,-135.417 -70.416,-215.417l5.833,-25l2.5,40.417c2.083,33.333 4.583,44.583 15.833,66.666c29.167,59.167 98.334,103.334 162.084,103.334c87.916,-0 165,-67.084 180.833,-157.917c8.75,-48.333 -10.833,-105.417 -49.583,-147.083c-49.167,-52.917 -140,-105.417 -217.5,-126.25c-42.5,-11.25 -118.334,-16.667 -155.417,-10.834Z" style="fill-rule:nonzero;"/><path d="M1183.35,702.083l-122.917,122.917l145.834,145.833l247.916,-247.916l-71.666,-71.667c-39.584,-39.583 -72.917,-72.083 -74.167,-72.083c-1.25,-0 -57.5,55.416 -125,122.916Z" style="fill-rule:nonzero;"/></g></svg>