<?xml version="1.0" encoding="UTF-8" standalone="no"?><!DOCTYPE svg PUBLIC "-//W3C//DTD SVG 1.1//EN" "http://www.w3.org/Graphics/SVG/1.1/DTD/svg11.dtd"><svg width="100%" height="100%" viewBox="0 0 1094 1421" version="1.1" xmlns="http://www.w3.org/2000/svg" xmlns:xlink="http://www.w3.org/1999/xlink" xml:space="preserve" xmlns:serif="http://www.serif.com/" style="fill-rule:evenodd;clip-rule:evenodd;stroke-linejoin:round;stroke-miterlimit:2;"><g><path d="M386.409,1.155c0,0.416 12.084,6.666 27.084,13.333c-0,0 34.583,25.417 37.5,25.417c2.916,-0 17.083,17.5 17.083,17.5c10.833,15.416 12.083,20.833 12.083,48.75c0,45.833 -16.25,76.666 -85,162.083c-30,37.5 -60.416,77.5 -67.083,89.583c-18.333,31.667 -29.167,70 -29.167,103.334c0,15.833 -1.666,28.75 -3.75,28.75c-6.25,-0 -45,-32.084 -56.25,-47.084c-21.25,-27.5 -29.166,-52.5 -29.166,-88.333c-0,-25.833 2.083,-37.083 9.166,-50.833c15.834,-30 10.417,-25 -24.583,24.166c-37.5,52.917 -69.167,103.334 -93.333,148.334c-9.167,16.666 -30.417,62.5 -39.584,83.75c-49.166,114.166 -69.166,234.583 -58.75,352.916c12.5,134.584 50.417,239.167 117.5,321.667c13.75,16.667 69.167,70 85,82.083c70,55 174.167,93.334 272.084,100.834l32.083,2.5l-270.833,-271.667l308.333,-308.333l308.333,308.333l-270.833,270.833l16.667,0c53.333,-0.416 144.583,-23.333 205,-52.083c180.416,-85 278.75,-255 287.5,-495.833c3.333,-96.667 -14.167,-194.584 -55.417,-310c-22.917,-63.334 -78.75,-177.917 -116.25,-237.917c-27.917,-44.167 -39.583,-60 -33.333,-43.75c2.083,4.583 7.083,21.25 11.25,37.5c19.166,69.583 -3.334,157.5 -49.167,192.5c-46.25,35 -120.417,-10.833 -128.75,-80c-3.333,-23.75 5.833,-67.5 17.5,-85c4.167,-6.667 7.083,-23.75 8.75,-52.917c1.667,-37.083 0.833,-47.083 -7.5,-72.5c-31.25,-97.5 -135.417,-179.583 -262.917,-207.916c-34.166,-7.5 -91.25,-13.75 -91.25,-10Z" style="fill-rule:nonzero;"/></g></svg>