<?xml version="1.0" encoding="UTF-8" standalone="no"?><!DOCTYPE svg PUBLIC "-//W3C//DTD SVG 1.1//EN" "http://www.w3.org/Graphics/SVG/1.1/DTD/svg11.dtd"><svg width="100%" height="100%" viewBox="0 0 1530 1528" version="1.1" xmlns="http://www.w3.org/2000/svg" xmlns:xlink="http://www.w3.org/1999/xlink" xml:space="preserve" xmlns:serif="http://www.serif.com/" style="fill-rule:evenodd;clip-rule:evenodd;stroke-linejoin:round;stroke-miterlimit:2;"><g><path d="M381.239,381.25l-381.25,381.25l764.583,764.583l764.583,-764.583l-381.25,-381.25c-209.583,-209.583 -382.083,-381.25 -383.333,-381.25c-1.25,-0 -173.75,171.667 -383.333,381.25Zm522.916,-118.333l137.5,137.5l-15.833,14.166c-21.667,18.75 -65.833,41.25 -99.583,50c-40,10.417 -99.167,7.084 -138.75,-7.916c-95.834,-36.667 -123.334,-42.084 -202.917,-38.75c-37.083,1.25 -65.833,5 -86.667,10.833c-17.083,4.583 -35.833,9.583 -41.666,11.25c-6.667,1.667 46.25,-54.167 147.916,-156.25c87.084,-87.083 159.167,-158.75 160.417,-158.75c1.25,-0 64.167,62.083 139.583,137.917Zm-361.25,304.166c46.25,5 104.167,23.334 165.417,51.667c92.917,43.333 140.417,57.917 211.25,64.583c121.25,11.667 249.583,-17.083 306.667,-68.75l15.833,-14.166l162.083,162.083l-31.25,31.25c-97.916,98.333 -226.666,152.083 -352.083,146.667c-77.917,-3.334 -131.25,-23.75 -237.083,-90.417c-113.75,-71.667 -144.584,-90 -192.917,-113.333c-65.417,-31.667 -111.25,-45 -168.333,-47.917c-74.167,-4.167 -170,12.5 -238.75,40.833c-16.25,7.084 -32.5,13.75 -35.834,14.584c-3.333,1.25 10.834,-14.167 31.25,-34.584c89.584,-87.083 207.084,-143.75 305.417,-146.666c9.583,-0 35.833,1.666 58.333,4.166Zm122.5,403.334c36.667,9.583 72.917,27.083 134.584,65c87.5,54.166 133.75,72.916 205.416,82.5l38.334,5l-279.167,279.166l-178.333,-178.333l-177.917,-178.75l26.667,-24.167c62.916,-57.5 138.333,-73.75 230.416,-50.416Z" style="fill-rule:nonzero;"/></g></svg>