<?xml version="1.0" encoding="UTF-8" standalone="no"?><!DOCTYPE svg PUBLIC "-//W3C//DTD SVG 1.1//EN" "http://www.w3.org/Graphics/SVG/1.1/DTD/svg11.dtd"><svg width="100%" height="100%" viewBox="0 0 314 310" version="1.1" xmlns="http://www.w3.org/2000/svg" xmlns:xlink="http://www.w3.org/1999/xlink" xml:space="preserve" xmlns:serif="http://www.serif.com/" style="fill-rule:evenodd;clip-rule:evenodd;stroke-linejoin:round;stroke-miterlimit:2;"><g><path d="M141.2,30.7c-8.4,16.9 -14.8,30.9 -14.2,31.1c0.5,0.2 4.9,-0.1 9.7,-0.7c11.2,-1.4 28.7,-1.4 40.9,-0c5.3,0.6 9.8,0.8 10.1,0.6c0.5,-0.6 -29.9,-61.7 -30.7,-61.7c-0.3,0 -7.5,13.8 -15.8,30.7Z" style="fill-rule:nonzero;"/><path d="M42.6,58.7c-0.4,15.9 -1.195,36.52 -0.801,36.272c26.622,-16.789 26.988,-16.931 50.284,-24.136c1.3,-0.8 -47.983,-40.836 -48.383,-40.836c-0.3,-0 -0.7,12.9 -1.1,28.7Z" style="fill-rule:nonzero;"/><path d="M248,47.6c-11.8,9.6 -22.7,18.4 -24.2,19.6c-1.6,1.1 -2.8,2.4 -2.8,2.7c0,0.3 3.5,1.9 7.8,3.5c10.4,3.8 35.275,17.579 38.8,19.3c5.113,2.496 5.7,3.1 5,-1.5c-0.3,-2 -0.8,-16.6 -1.2,-32.5c-0.4,-15.8 -0.9,-28.7 -1.3,-28.6c-0.3,-0 -10.3,7.9 -22.1,17.5Z" style="fill-rule:nonzero;"/><path d="M136.3,78.1c-20.1,2.3 -43.5,9.4 -62.3,18.9c-14.6,7.3 -20.4,10.4 -21,11.1c-1.2,1.3 -16.5,11.8 -21.5,15.8c-11.6,9.2 -31.5,28.9 -31.5,31.1c0,2.2 19.9,21.9 31.5,31.1c5,4 20.3,14.5 21.5,15.8c0.6,0.7 6.4,3.8 21,11.1c45,22.6 94.8,26.1 142.5,9.9c11.5,-3.9 42.2,-18.4 44.5,-21c1.2,-1.3 16.6,-11.8 21.5,-15.8c11.6,-9.2 31.5,-28.9 31.5,-31.1c0,-2.2 -19.9,-21.9 -31.5,-31.1c-4.9,-4 -20.3,-14.5 -21.5,-15.8c-0.6,-0.7 -6.4,-3.8 -21,-11.1c-31.8,-16 -69.5,-22.9 -103.7,-18.9Zm49.2,48.9l28,28l-56.5,56.5l-56.5,-56.5l28,-28c15.4,-15.4 28.2,-28 28.5,-28c0.3,0 13.1,12.6 28.5,28Z" style="fill-rule:nonzero;"/><path d="M42.9,215c-1.8,0 -0.7,20.4 -0.3,36.2c0.4,15.9 0.8,28.8 1.1,28.8c0.4,0 44.3,-35.2 47.8,-38.3c1.7,-1.5 1.8,-1.9 0.5,-2.7c-0.8,-0.5 -2,-1 -2.6,-1c-4.9,-0.1 -45.3,-23 -46.5,-23Z" style="fill-rule:nonzero;"/><path d="M271.3,215.1c-1,0.1 -31.6,17.5 -42.3,21.5c-4.1,1.5 -7.7,2.9 -7.9,3.1c-0.3,0.2 0.4,1.1 1.5,2.1c3.4,3.1 47.3,38.2 47.7,38.2c0.3,0 0.7,-12.9 1.1,-28.8c0.4,-15.8 0.9,-30.4 1.2,-32.5c0.5,-3.1 0.3,-3.7 -1.3,-3.6Z" style="fill-rule:nonzero;"/><path d="M126.1,248.6c0.3,0.5 7.2,14.5 15.4,31.1c8.2,16.7 15.2,30.3 15.5,30.3c0.7,0 31.2,-61.1 30.7,-61.7c-0.3,-0.2 -5.5,0.1 -11.8,0.8c-10.9,1.1 -34.2,0.8 -45.3,-0.7c-2.8,-0.4 -4.7,-0.3 -4.5,0.2Z" style="fill-rule:nonzero;"/></g></svg>