<?xml version="1.0" encoding="UTF-8" standalone="no"?><!DOCTYPE svg PUBLIC "-//W3C//DTD SVG 1.1//EN" "http://www.w3.org/Graphics/SVG/1.1/DTD/svg11.dtd"><svg width="100%" height="100%" viewBox="0 0 1308 1196" version="1.1" xmlns="http://www.w3.org/2000/svg" xmlns:xlink="http://www.w3.org/1999/xlink" xml:space="preserve" xmlns:serif="http://www.serif.com/" style="fill-rule:evenodd;clip-rule:evenodd;stroke-linejoin:round;stroke-miterlimit:2;"><g><path d="M292.522,27.5c-8.75,15 -19.584,34.583 -24.584,42.917c-16.666,29.166 -227.916,394.166 -235.416,406.666c-4.167,6.667 -12.917,22.5 -20,34.584l-12.084,21.666l100.417,-0.833l100.833,-1.25c0,0 196.25,-338.333 197.917,-339.583c1.667,-1.25 3.75,-5.417 5.417,-9.584c2.5,-6.666 18.333,-7.083 248.75,-7.083c230.416,0 246.25,0.417 248.75,7.083c1.666,4.167 3.75,8.334 5.416,9.584c1.667,1.25 197.917,339.583 197.917,339.583l100.833,1.25l100.417,0.833l-12.083,-21.666c-7.084,-12.084 -15.834,-27.917 -20,-34.584c-7.5,-12.5 -218.75,-377.5 -235.417,-406.666c-5,-8.334 -15.833,-27.917 -24.583,-42.917l-15.834,-27.5l-690.833,-0l-15.833,27.5Z" style="fill-rule:nonzero;"/><path d="M501.688,445.833l-150,150l302.084,302.084l302.083,-302.084l-150,-150c-82.5,-82.5 -150.833,-150 -152.083,-150c-1.25,0 -69.584,67.5 -152.084,150Z" style="fill-rule:nonzero;"/><path d="M36.688,721.667c20,35 71.25,123.75 113.75,197.083c42.084,73.333 83.334,145.417 91.25,160.417c7.917,15 15.417,27.916 16.667,29.166c3.333,3.334 30.833,50 40.833,70l8.75,17.5l690.834,0c-0,0 116.25,-203.75 158.333,-277.083c42.5,-73.333 93.75,-162.083 113.75,-197.083l36.667,-63.334l-100.417,0.834l-100.833,1.25l-90.417,156.25c-50,85.833 -96.25,166.666 -102.917,179.166l-12.5,22.917l-493.333,0l-12.5,-22.917c-6.667,-12.5 -52.917,-93.333 -102.917,-179.166l-90.416,-156.25l-100.834,-1.25l-100.416,-0.834l36.666,63.334Z" style="fill-rule:nonzero;"/></g></svg>