<svg clip-rule="evenodd" fill-rule="evenodd" stroke-linejoin="round" stroke-miterlimit="2" viewBox="0 0 310 274" xmlns="http://www.w3.org/2000/svg"><g fill-rule="nonzero" transform="matrix(.1 0 0 -.1 -101 383)"><path d="m1010 3797c0-131 51-441 92-562 119-351 350-545 739-620 97-19 318-31 372-21l37 7v124c0 227-27.65 414.09-124 580-43.26 74.49-142.33 214.99-127 202 0 0-127 109-214 155-107 56-171 79-310 113-110 27-317 55-407 55h-58zm651-553c30-8 96-36 147-61 140-69 234-172 297-330 31-75 51-151 43-159-12-11-147 36-231 79-152 79-255 210-313 396-13 42-24 79-24 84 0 11 21 9 81-9z"/><path d="m3860 3814c-253-30-488-111-627-215-29-21-166-169-182-192-66-97-122-238-152-387-23-110-36-386-20-410s286-19 416 8c259 53 462 170 588 341 102 138 181 376 212 641 8 69 15 149 15 177v53l-67-1c-38-1-120-7-183-15zm-320-565c0-29-36-132-73-209-72-150-215-266-400-325-43-14-83-25-89-25-12 0-3 61 11 70 4 3 14 41 14 41s96 219 182 297c60 55 190 124 264 141 24 5 45 12 48 15 11 10 43 6 43-5z"/><path d="m2257 2542-297-297 600-600 600 600-297 297c-164 164-300 298-303 298s-139-134-303-298z"/><path d="m1946 1900c-171-20-304-80-380-174-92-112-140-288-134-493 2-67 7-125 11-130 5-4 79-8 165-7 125 1 173 5 233 22 288 78 400 250 403 619 0 83-1 154-4 156-10 11-218 15-294 7z"/><path d="m2935 1902-50-7-5-75c-11-168 16-351 68-459 55-114 186-208 347-247 75-19 366-27 382-11 4 5 8 81 8 170 0 138-4 174-23 240-36 127-98 228-171 278-19 13-39 29-45 34-17 15-134 53-201 64-81 14-249 21-310 13z"/></g></svg>