<?xml version="1.0" encoding="UTF-8" standalone="no"?><!DOCTYPE svg PUBLIC "-//W3C//DTD SVG 1.1//EN" "http://www.w3.org/Graphics/SVG/1.1/DTD/svg11.dtd"><svg width="100%" height="100%" viewBox="0 0 962 1716" version="1.1" xmlns="http://www.w3.org/2000/svg" xmlns:xlink="http://www.w3.org/1999/xlink" xml:space="preserve" xmlns:serif="http://www.serif.com/" style="fill-rule:evenodd;clip-rule:evenodd;stroke-linejoin:round;stroke-miterlimit:2;"><g><path d="M455.301,6.395c-38.75,13.333 -152.083,80.833 -162.5,88.75c-29.166,22.083 -82.083,74.166 -106.25,104.583c-52.5,65.417 -95.833,145.833 -127.5,236.25l-17.5,51.667l202.084,202.5l202.083,202.916l-2.083,45.417l-1.667,45.417l-207.917,-207.917c-114.166,-114.167 -208.333,-206.667 -209.166,-205.833c-4.167,5 -15.834,95.833 -20,155.833l-5,65.833l216.666,217.5l216.667,217.084l-2.083,47.5l-1.667,47.5l-211.25,-211.25c-115.833,-115.834 -212.083,-210.834 -213.75,-210.834c-1.667,0 -1.667,10.834 -0.833,23.75c8.75,103.75 15.833,148.75 35.833,227.917l9.583,37.083l186.25,185.834l185.834,186.25l-2.084,77.916l-2.5,77.917l127.5,0l-2.5,-75.833l-2.5,-76.25l184.584,-185.417l185,-185.417l10.833,-38.333c14.167,-50.833 30.833,-146.667 34.583,-204.583c2.084,-25.417 2.5,-46.667 1.25,-46.667c-1.25,0 -97.083,95 -213.333,211.25l-211.667,211.667l0,-27.084c0,-15 -1.25,-36.666 -2.5,-48.75c-2.5,-20.833 -2.083,-21.666 7.917,-24.166c5.833,-1.667 417.5,-423.75 422.5,-434.167c-0,0 -4.583,-85 -7.083,-113.75c-2.5,-28.75 -6.667,-64.167 -9.584,-78.75l-5,-26.25l-418.75,418.75l0,-39.167c0,-21.666 -1.25,-43.333 -2.5,-48.75c-2.083,-7.5 -0.833,-10 6.25,-12.083c4.584,-1.25 381.667,-384.583 385,-384.583c12.5,-0 12.5,-29.584 0,-57.5c-3.333,-7.5 -7.083,-20.417 -8.333,-28.334c-1.25,-7.5 -64.167,-137.083 -75.833,-153.75c-5,-7.083 -82.084,-107.916 -115.417,-138.75c-55.833,-51.666 -137.917,-101.666 -202.917,-123.333c-23.75,-7.917 -25,-7.917 -48.75,0.417Zm141.667,332.5l114.583,114.583l-231.25,231.25l-231.25,-231.25l114.584,-114.583c62.916,-62.917 115.416,-114.584 116.666,-114.584c1.25,0 53.75,51.667 116.667,114.584Z" style="fill-rule:nonzero;"/></g></svg>