<?xml version="1.0" encoding="UTF-8" standalone="no"?><!DOCTYPE svg PUBLIC "-//W3C//DTD SVG 1.1//EN" "http://www.w3.org/Graphics/SVG/1.1/DTD/svg11.dtd"><svg width="100%" height="100%" viewBox="0 0 1530 1528" version="1.1" xmlns="http://www.w3.org/2000/svg" xmlns:xlink="http://www.w3.org/1999/xlink" xml:space="preserve" xmlns:serif="http://www.serif.com/" style="fill-rule:evenodd;clip-rule:evenodd;stroke-linejoin:round;stroke-miterlimit:2;"><g><path d="M381.233,381.25l-381.25,381.25l123.75,123.333l123.333,123.75l17.083,-17.916c9.584,-10 17.084,-18.75 17.084,-19.584c-0,-1.666 53.75,-67.083 68.75,-83.333l8.333,-9.583l204.167,204.166l202.083,-202.083l202.083,202.083l203.75,-203.75l37.5,40.417c20.834,22.083 47.084,50.417 58.75,62.5l20.834,22.083l120.833,-121.25l120.833,-120.833l-381.25,-381.25c-209.583,-209.583 -382.083,-381.25 -383.333,-381.25c-1.25,-0 -173.75,171.667 -383.333,381.25Zm824.583,245l-151.667,152.5l-76.25,-75.833l-75.833,-75.834l152.083,-152.083l75.834,75.833l75.833,75.417Zm-730,-147.083l155.417,147.916l-153.75,153.75l-72.917,-73.333l-73.333,-77.083l144.583,-151.25Z" style="fill-rule:nonzero;"/><path d="M664.566,1081.25c-53.75,53.75 -99.583,97.917 -101.667,97.917c-2.083,-0 -46.666,-43.334 -99.583,-95.834c-52.5,-52.916 -97.917,-95.833 -100.417,-95.833c-2.5,0 -9.166,6.25 -15,13.333c-5.833,7.5 -18.333,22.5 -27.916,34.167c-10,11.25 -17.917,22.917 -17.917,25c0,2.5 104.167,108.75 231.25,235.833l231.25,231.25l235.417,-235.416c129.583,-129.584 235,-236.667 234.583,-237.917c-0.833,-1.667 -15.833,-18.333 -33.75,-37.083l-32.917,-34.584l-201.25,201.25l-100,-100c-55,-55 -100.833,-100 -102.083,-100c-1.25,0 -46.25,44.167 -100,97.917Z" style="fill-rule:nonzero;"/></g></svg>