<?xml version="1.0" encoding="UTF-8" standalone="no"?><!DOCTYPE svg PUBLIC "-//W3C//DTD SVG 1.1//EN" "http://www.w3.org/Graphics/SVG/1.1/DTD/svg11.dtd"><svg width="100%" height="100%" viewBox="0 0 367 367" version="1.1" xmlns="http://www.w3.org/2000/svg" xmlns:xlink="http://www.w3.org/1999/xlink" xml:space="preserve" xmlns:serif="http://www.serif.com/" style="fill-rule:evenodd;clip-rule:evenodd;stroke-linejoin:round;stroke-miterlimit:2;"><g><path d="M91.497,91.5l-91.5,91.5l183.5,183.5l183.5,-183.5l-91.5,-91.5c-50.3,-50.3 -91.7,-91.5 -92,-91.5c-0.3,0 -41.7,41.2 -92,91.5Zm92.1,-23.9c0.4,0.2 25.1,29.5 25.1,29.5c0,-0 -12.9,63.9 -12.5,63.9c0.5,0 51.4,-42 51.4,-42l35.5,6.3l-13.324,29.831c0,0 -61.276,27.469 -61.276,27.869c0,0.4 62.1,22 62.1,22c0,0 13.2,35.1 12.6,35.6c-0.8,0.8 -32.3,6.4 -36.1,6.4c-2.9,0 -50.4,-42 -50.7,-42c-0.4,0 12.4,63.9 12.4,63.9c0,0 -25.2,30.6 -25.7,29.9c-0.1,-0.1 -24.9,-29.9 -24.9,-29.9c0,0 12.8,-63.9 12.4,-63.9c-0.3,0 -47.9,42 -50.2,42c-4.1,0.1 -35.3,-5.2 -36.3,-6.1c-0.6,-0.5 16.4,-37.9 16.4,-37.9c0,0 58,-19.6 58,-20c0,-0.4 -61.3,-20.7 -61.9,-21.8c-1.3,-2.6 -13.1,-34.1 -13.1,-35.2c0,-1.1 34.8,-7 36.4,-7c0,0 50.4,42 50.8,42c0.3,0 -12.4,-63.8 -12.4,-63.8c0,0 25,-29.8 25.3,-29.6Z" style="fill-rule:nonzero;"/></g></svg>