<?xml version="1.0" encoding="UTF-8" standalone="no"?><!DOCTYPE svg PUBLIC "-//W3C//DTD SVG 1.1//EN" "http://www.w3.org/Graphics/SVG/1.1/DTD/svg11.dtd"><svg width="100%" height="100%" viewBox="0 0 1310 1311" version="1.1" xmlns="http://www.w3.org/2000/svg" xmlns:xlink="http://www.w3.org/1999/xlink" xml:space="preserve" xmlns:serif="http://www.serif.com/" style="fill-rule:evenodd;clip-rule:evenodd;stroke-linejoin:round;stroke-miterlimit:2;"><g><path d="M576.662,2.333c-125,15.417 -265,78.75 -352.917,159.167c-15,14.167 -41.667,40.833 -47.5,46.667c-33.333,30.833 -85,105.416 -112.083,162.916c-69.167,146.25 -82.5,304.167 -39.167,463.75c6.667,25 15.417,52.5 19.167,60.417c47.916,105.417 81.25,155.833 148.333,222.917c95.833,95.833 201.25,152.5 337.5,182.083c62.083,13.333 190,13.333 252.917,-0.417c89.583,-19.166 173.333,-54.166 243.75,-102.083c50.833,-34.167 135.416,-118.75 170,-169.167c30.833,-44.583 55.833,-92.083 71.666,-135.416c5.834,-16.25 12.5,-32.917 14.584,-37.5c2.083,-4.584 9.166,-30.834 15.416,-58.334c10.417,-45.833 11.25,-57.083 11.667,-139.583c-0,-96.25 -5,-131.667 -29.583,-206.667c-40,-123.333 -124.584,-242.083 -224.584,-316.666c-18.333,-13.334 -35.833,-27.084 -38.75,-29.584c-12.5,-11.666 -135,-68.333 -169.583,-78.333c-66.667,-19.167 -125.417,-27.083 -195,-26.667c-35,0.417 -68.75,1.667 -75.833,2.5Zm510.416,653.334l-431.25,431.25l-431.25,-431.25l431.25,-431.25l431.25,431.25Z" style="fill-rule:nonzero;"/></g></svg>