<?xml version="1.0" encoding="UTF-8" standalone="no"?><!DOCTYPE svg PUBLIC "-//W3C//DTD SVG 1.1//EN" "http://www.w3.org/Graphics/SVG/1.1/DTD/svg11.dtd"><svg width="100%" height="100%" viewBox="0 0 1370 1008" version="1.1" xmlns="http://www.w3.org/2000/svg" xmlns:xlink="http://www.w3.org/1999/xlink" xml:space="preserve" xmlns:serif="http://www.serif.com/" style="fill-rule:evenodd;clip-rule:evenodd;stroke-linejoin:round;stroke-miterlimit:2;"><g><path d="M417.429,0.001l-202.083,202.083l202.083,202.083l202.083,-202.083l-202.083,-202.083Z" style="fill-rule:nonzero;"/><path d="M806.179,140.417c-5.833,8.75 -37.5,58.75 -70,111.667c-32.917,52.5 -67.917,107.917 -77.5,122.917c-9.583,15 -51.667,81.25 -93.333,147.916c-41.667,66.25 -77.5,121.667 -79.167,122.917c-1.667,1.25 -4.167,6.25 -5.833,11.25c-1.667,5.417 -4.584,9.583 -6.25,9.583c-1.667,0 -15,-20.833 -29.584,-46.666c-15,-25.834 -28.75,-50 -31.25,-53.75c-2.083,-4.167 -10.833,-19.167 -19.583,-33.75c-8.333,-14.584 -25.417,-43.75 -37.917,-65l-22.916,-39.167l-62.5,107.917c-187.5,322.916 -271.667,469.166 -270.417,470.833c0.833,0.417 309.167,0.833 685.417,0.417l683.75,-1.25l-62.917,-100c-34.167,-55 -105,-167.5 -156.667,-250c-51.666,-82.5 -109.583,-175 -128.75,-205.417c-19.166,-30.417 -36.25,-58.333 -37.5,-62.5c-1.666,-3.75 -4.166,-7.917 -5.833,-9.167c-2.083,-1.666 -116.667,-182.5 -153.75,-242.916l-7.083,-11.25l-10.417,15.416Z" style="fill-rule:nonzero;"/></g></svg>